<?xml version="1.0" standalone="no"?>
<!DOCTYPE svg PUBLIC "-//W3C//DTD SVG 20010904//EN"
 "http://www.w3.org/TR/2001/REC-SVG-20010904/DTD/svg10.dtd">
<svg version="1.0" xmlns="http://www.w3.org/2000/svg"
 width="656.000000pt" height="656.000000pt" viewBox="0 0 656.000000 656.000000"
 preserveAspectRatio="xMidYMid meet">
<metadata>
Created by potrace 1.14, written by Peter Selinger 2001-2017
</metadata>
<g transform="translate(0.000000,656.000000) scale(0.100000,-0.100000)"
fill="#000000" stroke="none">
<path d="M1871 6214 c-835 -442 -1425 -1201 -1652 -2128 -69 -283 -93 -491
-93 -806 0 -255 7 -348 44 -570 113 -673 431 -1295 908 -1779 l105 -106 8 50
c5 28 42 271 83 540 42 270 105 681 140 915 36 234 90 589 121 790 64 422 61
409 79 416 8 3 65 -34 129 -83 63 -48 233 -178 376 -288 144 -110 261 -205
261 -212 0 -12 -150 -520 -371 -1258 -54 -181 -97 -330 -96 -332 2 -1 63 39
137 90 484 332 994 683 1103 760 73 51 134 86 142 83 12 -4 161 -105 430 -291
33 -23 200 -138 370 -255 171 -118 366 -253 435 -301 69 -48 126 -83 128 -78
2 4 -35 135 -81 291 -74 247 -181 605 -340 1143 -25 83 -43 153 -41 157 3 4
139 110 302 235 163 125 331 253 372 285 41 31 78 54 81 50 4 -4 23 -115 44
-247 20 -132 81 -532 136 -890 55 -357 104 -679 109 -715 53 -356 130 -843
135 -848 8 -8 194 184 293 303 371 444 625 999 722 1575 37 222 44 315 44 570
0 315 -24 523 -93 806 -228 930 -825 1697 -1660 2132 -71 37 -132 64 -136 60
-7 -7 4 -97 40 -323 8 -49 71 -459 140 -910 69 -451 132 -866 142 -923 12 -76
13 -106 5 -114 -8 -8 -145 -8 -514 2 -277 7 -506 15 -510 19 -6 5 -110 297
-455 1276 -52 149 -98 274 -102 278 -4 4 -49 -110 -100 -255 -51 -145 -146
-414 -211 -598 -65 -184 -146 -414 -180 -510 -34 -96 -67 -180 -73 -187 -15
-14 -1033 -41 -1046 -27 -7 7 91 677 259 1754 11 74 32 209 45 300 14 91 28
177 31 193 4 19 2 27 -8 27 -7 0 -69 -30 -137 -66z"/>
</g>
</svg>
